<svg width="14" height="14" viewBox="0 0 14 14" fill="none" xmlns="http://www.w3.org/2000/svg">
<path fill-rule="evenodd" clip-rule="evenodd" d="M6.99997 0C7.38657 0 7.69997 0.313401 7.69997 0.7V1.73364C8.5968 1.90729 9.42418 2.355 10.0631 3.02317C10.8588 3.85526 11.2998 4.96404 11.2931 6.11525V7.3731C11.2931 7.98867 11.5195 8.36056 11.7978 8.71608C11.8332 8.76134 11.8769 8.81496 11.9246 8.87338C12.04 9.01476 12.1783 9.18428 12.2771 9.33156C12.4374 9.57053 12.6 9.89075 12.6 10.2956C12.6 10.3056 12.6 10.3162 12.6 10.3272C12.6003 10.5106 12.6008 10.8192 12.5287 11.0861C12.4881 11.2362 12.4081 11.442 12.2332 11.6149C12.0388 11.8071 11.7866 11.9 11.5234 11.9H10.091C9.85888 12.4598 9.43859 12.8901 9.09336 13.1996C8.51806 13.7154 7.77261 14.0006 6.99997 14.0006C6.22734 14.0006 5.4819 13.7154 4.9066 13.1996C4.4708 12.8089 4.24806 12.3621 4.12748 11.9H2.47657C2.21333 11.9 1.96112 11.8071 1.76671 11.6149C1.59189 11.442 1.51186 11.2362 1.47128 11.0861C1.39918 10.8192 1.39966 10.5106 1.39994 10.3272C1.39996 10.3162 1.39997 10.3056 1.39997 10.2956C1.39997 9.89075 1.56255 9.57053 1.72286 9.33156C1.82166 9.18428 1.95998 9.01476 2.07534 8.87338C2.12301 8.81496 2.16676 8.76134 2.20218 8.71608C2.48043 8.36056 2.70687 7.98867 2.70687 7.3731V6.11523C2.70016 4.96403 3.14118 3.85526 3.93685 3.02317C4.57576 2.355 5.40315 1.90729 6.29997 1.73364V0.7C6.29997 0.313401 6.61337 0 6.99997 0ZM6.99997 3.05614C6.22198 3.09291 5.48745 3.42731 4.9487 3.99072C4.40375 4.56062 4.10185 5.32015 4.10686 6.10865L4.10689 6.1131L4.10687 7.3731C4.10687 8.42773 3.67987 9.09954 3.30467 9.57894C3.22316 9.68309 3.15696 9.76366 3.10018 9.83278C3.01375 9.93798 2.94912 10.0166 2.8855 10.1115C2.80076 10.2378 2.79997 10.2829 2.79997 10.2956C2.79997 10.3719 2.80007 10.4387 2.80177 10.5H11.1982C11.1999 10.4387 11.2 10.3719 11.2 10.2956C11.2 10.2829 11.1992 10.2378 11.1145 10.1115C11.0508 10.0166 10.9862 9.93798 10.8998 9.83277C10.843 9.76366 10.7768 9.68309 10.6953 9.57894C10.3201 9.09954 9.89307 8.42773 9.89307 7.3731V6.10865C9.89809 5.32015 9.5962 4.56062 9.05125 3.99072C8.5125 3.42731 7.77797 3.09291 6.99997 3.05614ZM5.62531 11.9C5.68292 11.9954 5.7537 12.0788 5.84115 12.1572C6.15962 12.4427 6.57227 12.6006 6.99997 12.6006C7.42768 12.6006 7.84033 12.4427 8.15879 12.1572C8.25748 12.0687 8.34606 11.9832 8.42438 11.9H5.62531Z" fill="#FDD359"/>
</svg>
